<svg width="1251" height="1251" viewBox="0 0 1251 1251" fill="none" xmlns="http://www.w3.org/2000/svg">
<path d="M937.903 0.00012207H312.634C139.971 0.00012207 0 139.971 0 312.634V937.903C0 1110.57 139.971 1250.54 312.634 1250.54H937.903C1110.57 1250.54 1250.54 1110.57 1250.54 937.903V312.634C1250.54 139.971 1110.57 0.00012207 937.903 0.00012207Z" fill="#004EEB"/>
<path d="M937.903 26.0541H312.634C154.36 26.0541 26.0527 154.361 26.0527 312.635V937.904C26.0527 1096.18 154.36 1224.49 312.634 1224.49H937.903C1096.18 1224.49 1224.48 1096.18 1224.48 937.904V312.635C1224.48 154.361 1096.18 26.0541 937.903 26.0541Z" stroke="url(#paint0_linear_1125_128)" stroke-width="52"/>
<path d="M1021.24 892.613H448.881L1011.86 329.633L920.908 238.678L357.926 801.659V229.3H354.283L229.299 354.285V881.051L369.489 1021.24H896.326L1021.24 896.329L1021.24 892.613Z" fill="white"/>
<defs>
<linearGradient id="paint0_linear_1125_128" x1="-9.51108e-05" y1="625.27" x2="1250.54" y2="625.27" gradientUnits="userSpaceOnUse">
<stop stop-color="white" stop-opacity="0.2"/>
<stop offset="1" stop-color="white" stop-opacity="0.1"/>
</linearGradient>
</defs>
</svg>
